<svg width="6" height="9" viewBox="0 0 6 9" fill="none" xmlns="http://www.w3.org/2000/svg">
<path d="M3 0C1.34143 0 0 1.4085 0 3.15C0 5.5125 3 9 3 9C3 9 6 5.5125 6 3.15C6 1.4085 4.65857 0 3 0ZM0.857143 3.15C0.857143 1.908 1.81714 0.9 3 0.9C4.18286 0.9 5.14286 1.908 5.14286 3.15C5.14286 4.446 3.90857 6.3855 3 7.596C2.10857 6.3945 0.857143 4.4325 0.857143 3.15Z" fill="#8F97B1"/>
<path d="M3 4C3.55228 4 4 3.55228 4 3C4 2.44772 3.55228 2 3 2C2.44772 2 2 2.44772 2 3C2 3.55228 2.44772 4 3 4Z" fill="#8F97B1"/>
</svg>
