<svg width="32" height="115" viewBox="0 0 32 115" fill="none" xmlns="http://www.w3.org/2000/svg">
<rect x="0.5" y="0.5" width="31" height="31" rx="15.5" fill="white"/>
<path d="M15.0516 16.1215L19.1161 11.9783L18.371 11.2417L15.0516 14.6253L13.629 13.1752L12.9065 13.9348L15.0516 16.1215ZM16 23.1189C17.972 21.3235 19.4624 19.6164 20.471 17.9974C21.4796 16.3785 21.9839 14.9859 21.9839 13.8197C21.9839 11.9783 21.4043 10.4706 20.2452 9.29668C19.086 8.12276 17.671 7.53581 16 7.53581C14.329 7.53581 12.914 8.12276 11.7548 9.29668C10.5957 10.4706 10.0161 11.9783 10.0161 13.8197C10.0161 14.9859 10.528 16.3785 11.5516 17.9974C12.5753 19.6164 14.0581 21.3235 16 23.1189ZM16 24.5C13.6516 22.413 11.8978 20.4795 10.7387 18.6995C9.57957 16.9194 9 15.2928 9 13.8197C9 11.5946 9.70376 9.81841 11.1113 8.49105C12.5188 7.16368 14.1484 6.5 16 6.5C17.8516 6.5 19.4812 7.16368 20.8887 8.49105C22.2962 9.81841 23 11.5946 23 13.8197C23 15.2928 22.4204 16.9194 21.2613 18.6995C20.1022 20.4795 18.3484 22.413 16 24.5Z" fill="#198460"/>
<rect x="0.5" y="0.5" width="31" height="31" rx="15.5" stroke="#E8EBF3"/>
<path d="M16 39V76" stroke="#198460" stroke-linecap="round" stroke-dasharray="4 4"/>
<rect x="0.5" y="83.5" width="31" height="31" rx="15.5" fill="white"/>
<path d="M16.0002 98.6209C16.3854 98.6209 16.715 98.4839 16.9891 98.2098C17.2632 97.9357 17.4002 97.6061 17.4002 97.2209C17.4002 96.8357 17.2632 96.5061 16.9891 96.232C16.715 95.958 16.3854 95.8209 16.0002 95.8209C15.615 95.8209 15.2854 95.958 15.0113 96.232C14.7373 96.5061 14.6002 96.8357 14.6002 97.2209C14.6002 97.6061 14.7373 97.9357 15.0113 98.2098C15.2854 98.4839 15.615 98.6209 16.0002 98.6209ZM16.0002 106.376C17.941 104.643 19.4076 102.995 20.4002 101.432C21.3928 99.8691 21.8891 98.5246 21.8891 97.3987C21.8891 95.6209 21.3224 94.1654 20.1891 93.032C19.0558 91.8987 17.6595 91.332 16.0002 91.332C14.341 91.332 12.9447 91.8987 11.8113 93.032C10.678 94.1654 10.1113 95.6209 10.1113 97.3987C10.1113 98.5246 10.615 99.8691 11.6224 101.432C12.6298 102.995 14.0891 104.643 16.0002 106.376ZM16.0002 107.71C13.6891 105.695 11.9632 103.828 10.8224 102.11C9.6817 100.391 9.11133 98.8209 9.11133 97.3987C9.11133 95.2506 9.80392 93.5357 11.1891 92.2543C12.5743 90.9728 14.178 90.332 16.0002 90.332C17.8224 90.332 19.4261 90.9728 20.8113 92.2543C22.1965 93.5357 22.8891 95.2506 22.8891 97.3987C22.8891 98.8209 22.3187 100.391 21.178 102.11C20.0373 103.828 18.3113 105.695 16.0002 107.71Z" fill="#EE3F32"/>
<rect x="0.5" y="83.5" width="31" height="31" rx="15.5" stroke="#E8EBF3"/>
</svg>
