<svg width="17" height="13" viewBox="0 0 17 13" fill="none" xmlns="http://www.w3.org/2000/svg">
<path d="M13.4455 12.3443C14.0765 12.3443 14.6142 12.1221 15.0585 11.6778C15.5028 11.2335 15.725 10.6958 15.725 10.0648H17V1.15909C17 0.849999 16.8841 0.579545 16.6523 0.347727C16.4205 0.115909 16.15 0 15.8409 0H4.65569V3.22613H2.62728L1.17709e-05 6.72272V10.0648H1.3716C1.3716 10.6958 1.59376 11.2335 2.03808 11.6778C2.4824 12.1221 3.02009 12.3443 3.65115 12.3443C4.28221 12.3443 4.81989 12.1221 5.26421 11.6778C5.70853 11.2335 5.93069 10.6958 5.93069 10.0648H11.1659C11.1659 10.6958 11.3881 11.2335 11.8324 11.6778C12.2767 12.1221 12.8144 12.3443 13.4455 12.3443ZM13.4455 11.1852C13.1364 11.1852 12.8724 11.0757 12.6534 10.8568C12.4345 10.6379 12.325 10.3739 12.325 10.0648C12.325 9.75567 12.4345 9.49166 12.6534 9.27272C12.8724 9.05378 13.1364 8.94431 13.4455 8.94431C13.7545 8.94431 14.0186 9.05378 14.2375 9.27272C14.4564 9.49166 14.5659 9.75567 14.5659 10.0648C14.5659 10.3739 14.4564 10.6379 14.2375 10.8568C14.0186 11.0757 13.7545 11.1852 13.4455 11.1852ZM15.8409 8.90567H15.4159C15.197 8.55795 14.9201 8.28105 14.5852 8.07499C14.2504 7.86893 13.8769 7.7659 13.4648 7.7659C13.0527 7.7659 12.676 7.87215 12.3347 8.08465C11.9934 8.29715 11.7133 8.57083 11.4943 8.90567H5.81478V1.15909H15.8409V8.90567ZM3.65115 11.1852C3.34206 11.1852 3.07804 11.0757 2.8591 10.8568C2.64016 10.6379 2.53069 10.3739 2.53069 10.0648C2.53069 9.75567 2.64016 9.49166 2.8591 9.27272C3.07804 9.05378 3.34206 8.94431 3.65115 8.94431C3.96024 8.94431 4.22425 9.05378 4.44319 9.27272C4.66213 9.49166 4.7716 9.75567 4.7716 10.0648C4.7716 10.3739 4.66213 10.6379 4.44319 10.8568C4.22425 11.0757 3.96024 11.1852 3.65115 11.1852ZM4.65569 7.24431H1.06251L3.20683 4.38522H4.65569V7.24431Z" fill="#4247C7"/>
</svg>
