<svg width="14" height="18" viewBox="0 0 14 18" fill="none" xmlns="http://www.w3.org/2000/svg">
<path d="M7 8.42258C7.3914 8.42258 7.72634 8.28333 8.00484 8.00484C8.28333 7.72634 8.42258 7.3914 8.42258 7C8.42258 6.6086 8.28333 6.27366 8.00484 5.99516C7.72634 5.71667 7.3914 5.57742 7 5.57742C6.6086 5.57742 6.27366 5.71667 5.99516 5.99516C5.71667 6.27366 5.57742 6.6086 5.57742 7C5.57742 7.3914 5.71667 7.72634 5.99516 8.00484C6.27366 8.28333 6.6086 8.42258 7 8.42258ZM7 16.3032C8.97204 14.5419 10.4624 12.8672 11.471 11.279C12.4796 9.69086 12.9839 8.32473 12.9839 7.18065C12.9839 5.37419 12.4081 3.89516 11.2565 2.74355C10.1048 1.59194 8.68602 1.01613 7 1.01613C5.31398 1.01613 3.89516 1.59194 2.74355 2.74355C1.59194 3.89516 1.01613 5.37419 1.01613 7.18065C1.01613 8.32473 1.52796 9.69086 2.55161 11.279C3.57527 12.8672 5.05806 14.5419 7 16.3032ZM7 17.6581C4.65161 15.6108 2.89785 13.714 1.73871 11.9677C0.57957 10.2215 0 8.62581 0 7.18065C0 4.99785 0.703764 3.25538 2.11129 1.95323C3.51882 0.651075 5.14839 0 7 0C8.85161 0 10.4812 0.651075 11.8887 1.95323C13.2962 3.25538 14 4.99785 14 7.18065C14 8.62581 13.4204 10.2215 12.2613 11.9677C11.1022 13.714 9.34839 15.6108 7 17.6581Z" fill="#198460"/>
</svg>
