<svg width="24" height="24" viewBox="0 0 24 24" fill="none" xmlns="http://www.w3.org/2000/svg">
<path d="M10.9687 12C10.9687 12.2735 11.0774 12.5358 11.2708 12.7292C11.4642 12.9226 11.7265 13.0312 12 13.0312C12.2735 13.0312 12.5358 12.9226 12.7292 12.7292C12.9226 12.5358 13.0312 12.2735 13.0312 12C13.0312 11.7265 12.9226 11.4642 12.7292 11.2708C12.5358 11.0774 12.2735 10.9688 12 10.9688C11.7265 10.9688 11.4642 11.0774 11.2708 11.2708C11.0774 11.4642 10.9687 11.7265 10.9687 12ZM15.2656 12C15.2656 12.2735 15.3743 12.5358 15.5677 12.7292C15.7611 12.9226 16.0234 13.0312 16.2969 13.0312C16.5704 13.0312 16.8327 12.9226 17.0261 12.7292C17.2195 12.5358 17.3281 12.2735 17.3281 12C17.3281 11.7265 17.2195 11.4642 17.0261 11.2708C16.8327 11.0774 16.5704 10.9688 16.2969 10.9688C16.0234 10.9688 15.7611 11.0774 15.5677 11.2708C15.3743 11.4642 15.2656 11.7265 15.2656 12ZM6.67187 12C6.67187 12.2735 6.78052 12.5358 6.97392 12.7292C7.16732 12.9226 7.42962 13.0312 7.70312 13.0312C7.97663 13.0312 8.23893 12.9226 8.43233 12.7292C8.62572 12.5358 8.73437 12.2735 8.73437 12C8.73437 11.7265 8.62572 11.4642 8.43233 11.2708C8.23893 11.0774 7.97663 10.9688 7.70312 10.9688C7.42962 10.9688 7.16732 11.0774 6.97392 11.2708C6.78052 11.4642 6.67187 11.7265 6.67187 12ZM20.8773 8.27031C20.3918 7.1166 19.6957 6.08105 18.8084 5.1916C17.9273 4.3073 16.8813 3.60438 15.7297 3.12266C14.548 2.62637 13.2934 2.375 12 2.375H11.957C10.6551 2.38145 9.39394 2.63926 8.20801 3.14629C7.06624 3.63296 6.03006 4.33712 5.15723 5.21953C4.27852 6.10684 3.58887 7.13809 3.11191 8.2875C2.61777 9.47773 2.36855 10.7432 2.375 12.0451C2.38229 13.5371 2.73528 15.0072 3.40625 16.3398V19.6055C3.40625 19.8676 3.51037 20.1189 3.69571 20.3043C3.88105 20.4896 4.13242 20.5938 4.39453 20.5938H7.6623C8.99497 21.2647 10.465 21.6177 11.957 21.625H12.0021C13.2891 21.625 14.5373 21.3758 15.7125 20.8881C16.8583 20.4121 17.9004 19.7174 18.7805 18.8428C19.6678 17.9641 20.366 16.9371 20.8537 15.792C21.3607 14.6061 21.6186 13.3449 21.625 12.043C21.6314 10.7346 21.3779 9.46484 20.8773 8.27031ZM17.6311 17.6805C16.125 19.1715 14.127 19.9922 12 19.9922H11.9635C10.668 19.9857 9.38105 19.6635 8.24453 19.0576L8.06406 18.9609H5.03906V15.9359L4.94238 15.7555C4.33652 14.6189 4.01426 13.332 4.00781 12.0365C3.99922 9.89453 4.81777 7.88359 6.31953 6.36895C7.81914 4.8543 9.82363 4.01641 11.9656 4.00781H12.0021C13.0764 4.00781 14.1184 4.21621 15.1002 4.62871C16.0584 5.03047 16.9178 5.6084 17.6568 6.34746C18.3937 7.08437 18.9738 7.9459 19.3756 8.9041C19.7924 9.89668 20.0008 10.9494 19.9965 12.0365C19.9836 14.1764 19.1436 16.1809 17.6311 17.6805Z" fill="#979C9E"/>
</svg>
