<svg width="22" height="22" viewBox="0 0 22 22" fill="none" xmlns="http://www.w3.org/2000/svg">
<path d="M11 10.6104C11.3972 10.6104 11.7372 10.4691 12.0198 10.1865C12.3024 9.90382 12.4438 9.56389 12.4438 9.16667C12.4438 8.76945 12.3024 8.42951 12.0198 8.14688C11.7372 7.86424 11.3972 7.72292 11 7.72292C10.6028 7.72292 10.2628 7.86424 9.98021 8.14688C9.69757 8.42951 9.55625 8.76945 9.55625 9.16667C9.55625 9.56389 9.69757 9.90382 9.98021 10.1865C10.2628 10.4691 10.6028 10.6104 11 10.6104ZM11 18.6083C13.0014 16.8208 14.5139 15.1212 15.5375 13.5094C16.5611 11.8976 17.0729 10.5111 17.0729 9.35C17.0729 7.51667 16.4885 6.01563 15.3198 4.84688C14.151 3.67813 12.7111 3.09375 11 3.09375C9.28889 3.09375 7.84896 3.67813 6.68021 4.84688C5.51146 6.01563 4.92708 7.51667 4.92708 9.35C4.92708 10.5111 5.44653 11.8976 6.48542 13.5094C7.52431 15.1212 9.02917 16.8208 11 18.6083ZM11 19.9833C8.61667 17.9056 6.83681 15.9806 5.66042 14.2083C4.48403 12.4361 3.89583 10.8167 3.89583 9.35C3.89583 7.13472 4.61007 5.36632 6.03854 4.04479C7.46701 2.72326 9.12083 2.0625 11 2.0625C12.8792 2.0625 14.533 2.72326 15.9615 4.04479C17.3899 5.36632 18.1042 7.13472 18.1042 9.35C18.1042 10.8167 17.516 12.4361 16.3396 14.2083C15.1632 15.9806 13.3833 17.9056 11 19.9833Z" fill="#EE3F32"/>
</svg>
