<svg width="15" height="15" viewBox="0 0 15 15" fill="none" xmlns="http://www.w3.org/2000/svg">
<path d="M10.25 3.24893H4.24999C3.14542 3.24893 2.24999 4.14436 2.24999 5.24893V10.2489C2.24999 11.3535 3.14542 12.2489 4.24999 12.2489H10.25C11.3546 12.2489 12.25 11.3535 12.25 10.2489V5.24893C12.25 4.14436 11.3546 3.24893 10.25 3.24893Z" stroke="#F8F8F8" stroke-width="1.10111" stroke-linecap="round" stroke-linejoin="round"/>
<path d="M5.25001 2.24993V4.24993M9.25001 2.24993V4.24993" stroke="#F8F8F8" stroke-width="1.10111" stroke-linecap="round" stroke-linejoin="round"/>
<path d="M6.72509 9.92802C6.72509 9.86626 6.72509 9.77361 6.75509 9.71185C6.78509 9.65008 6.81509 9.58832 6.87509 9.55743C6.93509 9.52655 6.96509 9.46479 7.02509 9.46479C7.08509 9.4339 7.17509 9.4339 7.23509 9.4339C7.29509 9.4339 7.38509 9.4339 7.44509 9.46479L7.62509 9.55743C7.68509 9.58832 7.71509 9.65008 7.74509 9.71185C7.77509 9.77361 7.77509 9.83537 7.77509 9.92802C7.77509 9.98979 7.77509 10.0824 7.74509 10.1442C7.71509 10.206 7.68509 10.2677 7.62509 10.2986C7.56509 10.3295 7.53509 10.3913 7.44509 10.3913C7.35509 10.3913 7.35509 10.453 7.26509 10.453C7.17509 10.453 7.11509 10.453 7.05509 10.4221C6.99509 10.3913 6.93509 10.3604 6.90509 10.3295C6.84509 10.2986 6.81509 10.2368 6.78509 10.1751C6.75509 10.0824 6.72509 10.0207 6.72509 9.92802ZM7.65509 8.60008H6.87509L6.75509 5.20302H7.74509L7.65509 8.60008Z" fill="#F8F8F8"/>
</svg>
