<svg width="24" height="24" viewBox="0 0 24 24" fill="none" xmlns="http://www.w3.org/2000/svg">
<path d="M13.6 2.3999H5.60001C5.06957 2.3999 4.56087 2.61062 4.18579 2.98569C3.81072 3.36076 3.60001 3.86947 3.60001 4.3999V20.3999C3.60001 20.9303 3.81072 21.439 4.18579 21.8141C4.56087 22.1892 5.06957 22.3999 5.60001 22.3999H17.6C18.1304 22.3999 18.6391 22.1892 19.0142 21.8141C19.3893 21.439 19.6 20.9303 19.6 20.3999V8.3999M13.6 2.3999L19.6 8.3999M13.6 2.3999L13.6 8.3999H19.6" stroke="#1A1A1A" stroke-linecap="round" stroke-linejoin="round"/>
<path fill-rule="evenodd" clip-rule="evenodd" d="M11.4 17.6567C11.2864 17.6567 11.1774 17.6116 11.097 17.5312C11.0167 17.4509 10.9715 17.3419 10.9715 17.2282L10.9715 12.2638L9.13247 14.1037C9.09263 14.1436 9.04534 14.1752 8.99329 14.1967C8.94123 14.2183 8.88544 14.2294 8.8291 14.2294C8.77276 14.2294 8.71697 14.2183 8.66492 14.1967C8.61287 14.1752 8.56557 14.1436 8.52573 14.1037C8.48589 14.0639 8.45429 14.0166 8.43273 13.9645C8.41117 13.9125 8.40007 13.8567 8.40007 13.8003C8.40007 13.744 8.41117 13.6882 8.43273 13.6362C8.45429 13.5841 8.48589 13.5368 8.52573 13.497L11.0967 10.926C11.1365 10.8861 11.1838 10.8545 11.2358 10.8329C11.2879 10.8113 11.3437 10.8002 11.4 10.8002C11.4564 10.8002 11.5122 10.8113 11.5643 10.8329C11.6163 10.8545 11.6636 10.8861 11.7034 10.926L14.2743 13.497C14.3142 13.5368 14.3458 13.5841 14.3673 13.6362C14.3889 13.6882 14.4 13.744 14.4 13.8003C14.4 13.8567 14.3889 13.9125 14.3673 13.9645C14.3458 14.0166 14.3142 14.0639 14.2743 14.1037C14.1939 14.1842 14.0848 14.2294 13.971 14.2294C13.9146 14.2294 13.8588 14.2183 13.8068 14.1967C13.7547 14.1752 13.7074 14.1436 13.6676 14.1037L11.8285 12.2638L11.8285 17.2282C11.8285 17.3419 11.7834 17.4509 11.703 17.5312C11.6227 17.6116 11.5137 17.6567 11.4 17.6567Z" fill="#1A1A1A"/>
</svg>
