<svg width="17" height="17" viewBox="0 0 17 17" fill="none" xmlns="http://www.w3.org/2000/svg">
<g clip-path="url(#clip0_2_1852)">
<path d="M8.49955 5.66488C6.93414 5.66488 5.66622 6.93279 5.66622 8.49821C5.66622 10.0636 6.93414 11.3315 8.49955 11.3315C10.065 11.3315 11.3329 10.0636 11.3329 8.49821C11.3329 6.93279 10.065 5.66488 8.49955 5.66488ZM14.8321 7.78988C14.6716 6.35346 14.0275 5.0143 13.0055 3.99228C11.9835 2.97027 10.6443 2.32616 9.20789 2.16571V0.706543H7.79122V2.16571C6.3548 2.32616 5.01564 2.97027 3.99363 3.99228C2.97161 5.0143 2.3275 6.35346 2.16705 7.78988H0.707886V9.20654H2.16705C2.3275 10.643 2.97161 11.9821 3.99363 13.0041C5.01564 14.0261 6.3548 14.6703 7.79122 14.8307V16.2899H9.20789V14.8307C10.6443 14.6703 11.9835 14.0261 13.0055 13.0041C14.0275 11.9821 14.6716 10.643 14.8321 9.20654H16.2912V7.78988H14.8321ZM8.49955 13.4565C5.7583 13.4565 3.54122 11.2395 3.54122 8.49821C3.54122 5.75696 5.7583 3.53988 8.49955 3.53988C11.2408 3.53988 13.4579 5.75696 13.4579 8.49821C13.4579 11.2395 11.2408 13.4565 8.49955 13.4565Z" fill="#0F96E3"/>
</g>
<defs>
<clipPath id="clip0_2_1852">
<rect width="17" height="17" fill="white"/>
</clipPath>
</defs>
</svg>
