<svg width="30" height="30" viewBox="0 0 30 30" fill="none" xmlns="http://www.w3.org/2000/svg">
<path d="M9.51748 23.4999C8.89415 23.4999 8.36644 23.2839 7.93436 22.8518C7.50227 22.4197 7.28623 21.892 7.28623 21.2687V18.6124H9.98498V6.49993L11.26 7.77493L12.535 6.49993L13.7887 7.77493L15.0637 6.49993L16.3387 7.77493L17.6137 6.49993L18.8887 7.77493L20.1637 6.49993L21.4387 7.77493L22.7137 6.49993V21.2687C22.7137 21.892 22.4977 22.4197 22.0656 22.8518C21.6335 23.2839 21.1058 23.4999 20.4825 23.4999H9.51748ZM20.4825 22.2249C20.7658 22.2249 20.996 22.1364 21.1731 21.9593C21.3502 21.7822 21.4387 21.552 21.4387 21.2687V8.62493H11.26V18.6124H19.5262V21.2687C19.5262 21.552 19.6148 21.7822 19.7919 21.9593C19.9689 22.1364 20.1991 22.2249 20.4825 22.2249ZM12.3862 11.9824V10.7074H17.4862V11.9824H12.3862ZM12.3862 14.8299V13.5549H17.4862V14.8299H12.3862ZM19.4625 11.9824C19.2925 11.9824 19.1437 11.9187 19.0162 11.7912C18.8887 11.6637 18.825 11.5149 18.825 11.3449C18.825 11.1749 18.8887 11.0262 19.0162 10.8987C19.1437 10.7712 19.2925 10.7074 19.4625 10.7074C19.6325 10.7074 19.7812 10.7712 19.9087 10.8987C20.0362 11.0262 20.1 11.1749 20.1 11.3449C20.1 11.5149 20.0362 11.6637 19.9087 11.7912C19.7812 11.9187 19.6325 11.9824 19.4625 11.9824ZM19.4625 14.7237C19.2925 14.7237 19.1437 14.6599 19.0162 14.5324C18.8887 14.4049 18.825 14.2562 18.825 14.0862C18.825 13.9162 18.8887 13.7674 19.0162 13.6399C19.1437 13.5124 19.2925 13.4487 19.4625 13.4487C19.6325 13.4487 19.7812 13.5124 19.9087 13.6399C20.0362 13.7674 20.1 13.9162 20.1 14.0862C20.1 14.2562 20.0362 14.4049 19.9087 14.5324C19.7812 14.6599 19.6325 14.7237 19.4625 14.7237ZM9.49623 22.2249H18.2512V19.8874H8.56123V21.2687C8.56123 21.552 8.64977 21.7822 8.82686 21.9593C9.00394 22.1364 9.22707 22.2249 9.49623 22.2249ZM8.56123 22.2249V19.8874V22.2249Z" fill="#8F97B1"/>
</svg>
