<svg width="14" height="14" viewBox="0 0 14 14" fill="none" xmlns="http://www.w3.org/2000/svg">
<path d="M4.305 12.2555C4.37273 12.3234 4.4532 12.3773 4.54178 12.414C4.63037 12.4508 4.72534 12.4697 4.82125 12.4697C4.91716 12.4697 5.01213 12.4508 5.10071 12.414C5.1893 12.3773 5.26976 12.3234 5.3375 12.2555L10.185 7.40801C10.2391 7.35404 10.282 7.28994 10.3113 7.21937C10.3405 7.1488 10.3556 7.07315 10.3556 6.99676C10.3556 6.92036 10.3405 6.84471 10.3113 6.77414C10.282 6.70357 10.2391 6.63947 10.185 6.58551L5.3375 1.73801C5.05166 1.45217 4.59083 1.45217 4.305 1.73801C4.01916 2.02384 4.01916 2.48467 4.305 2.77051L8.52833 6.99967L4.29917 11.2288C4.01917 11.5088 4.01916 11.9755 4.305 12.2555Z" fill="#4247C7"/>
</svg>
