<svg width="21" height="21" viewBox="0 0 21 21" fill="none" xmlns="http://www.w3.org/2000/svg">
<path d="M4.93183 16.0682H12.3561V12.3561H16.0682V4.93186H4.93183V16.0682ZM4.93183 17.1819C4.62249 17.1819 4.35955 17.0736 4.14301 16.8571C3.92647 16.6405 3.8182 16.3776 3.8182 16.0682V4.93186C3.8182 4.62252 3.92647 4.35958 4.14301 4.14304C4.35955 3.9265 4.62249 3.81823 4.93183 3.81823H16.0682C16.3775 3.81823 16.6405 3.9265 16.857 4.14304C17.0736 4.35958 17.1818 4.62252 17.1818 4.93186V12.7273L12.7273 17.1819H4.93183ZM7.15911 11.6137V10.5H10.3144V11.6137H7.15911ZM7.15911 8.64399V7.53035H13.8409V8.64399H7.15911ZM4.93183 16.0682V4.93186V16.0682Z" fill="#4364C6"/>
</svg>
