<svg width="35" height="12" viewBox="0 0 35 12" fill="none" xmlns="http://www.w3.org/2000/svg">
<path d="M3.64286 1.82143C3.64286 1.73618 3.60899 1.65442 3.54871 1.59414C3.48843 1.53386 3.40668 1.5 3.32143 1.5C3.23618 1.5 3.15442 1.53386 3.09414 1.59414C3.03386 1.65442 3 1.73618 3 1.82143V3.75C2.99992 4.1205 3.12786 4.47964 3.36215 4.76665C3.59644 5.05366 3.9227 5.2509 4.28571 5.325V10.1786C4.28571 10.2638 4.31958 10.3456 4.37986 10.4059C4.44014 10.4661 4.52189 10.5 4.60714 10.5C4.69239 10.5 4.77415 10.4661 4.83443 10.4059C4.89471 10.3456 4.92857 10.2638 4.92857 10.1786V5.325C5.29158 5.2509 5.61784 5.05366 5.85213 4.76665C6.08643 4.47964 6.21436 4.1205 6.21429 3.75V1.82143C6.21429 1.73618 6.18042 1.65442 6.12014 1.59414C6.05986 1.53386 5.97811 1.5 5.89286 1.5C5.80761 1.5 5.72585 1.53386 5.66557 1.59414C5.60529 1.65442 5.57143 1.73618 5.57143 1.82143V3.75C5.57153 3.9495 5.50976 4.14411 5.39462 4.30703C5.27949 4.46995 5.11666 4.59314 4.92857 4.65964V1.82143C4.92857 1.73618 4.89471 1.65442 4.83443 1.59414C4.77415 1.53386 4.69239 1.5 4.60714 1.5C4.52189 1.5 4.44014 1.53386 4.37986 1.59414C4.31958 1.65442 4.28571 1.73618 4.28571 1.82143V4.65964C4.09763 4.59314 3.9348 4.46995 3.81966 4.30703C3.70453 4.14411 3.64275 3.9495 3.64286 3.75V1.82143ZM8.14286 10.1786V6H7.17857C7.09332 6 7.01157 5.96614 6.95129 5.90586C6.89101 5.84558 6.85714 5.76382 6.85714 5.67857V3.10714C6.85714 2.68093 7.06671 2.28236 7.35279 1.99564C7.6395 1.70957 8.03807 1.5 8.46429 1.5C8.54953 1.5 8.63129 1.53386 8.69157 1.59414C8.75185 1.65442 8.78571 1.73618 8.78571 1.82143V10.1786C8.78571 10.2638 8.75185 10.3456 8.69157 10.4059C8.63129 10.4661 8.54953 10.5 8.46429 10.5C8.37904 10.5 8.29728 10.4661 8.237 10.4059C8.17672 10.3456 8.14286 10.2638 8.14286 10.1786Z" fill="#767676"/>
<path d="M12.132 2.67606C12.444 2.46806 12.768 2.32406 13.104 2.24406C13.44 2.15606 13.76 2.11206 14.064 2.11206C14.4 2.11206 14.708 2.16006 14.988 2.25606C15.276 2.35206 15.52 2.48806 15.72 2.66406C15.92 2.83206 16.076 3.03606 16.188 3.27606C16.3 3.50806 16.356 3.76406 16.356 4.04406C16.356 4.51606 16.232 4.90806 15.984 5.22006C15.744 5.53206 15.448 5.75206 15.096 5.88006C15.536 5.97606 15.9 6.18806 16.188 6.51606C16.476 6.83606 16.62 7.22406 16.62 7.68006C16.62 8.08806 16.54 8.43206 16.38 8.71206C16.22 8.99206 16.012 9.22006 15.756 9.39606C15.5 9.56406 15.208 9.68806 14.88 9.76806C14.56 9.84806 14.232 9.88806 13.896 9.88806C13.56 9.88806 13.224 9.85606 12.888 9.79206C12.552 9.72806 12.256 9.63606 12 9.51606L12.24 8.70006C12.376 8.74806 12.504 8.79606 12.624 8.84406C12.744 8.88406 12.868 8.92006 12.996 8.95206C13.124 8.97606 13.256 8.99606 13.392 9.01206C13.536 9.02806 13.7 9.03606 13.884 9.03606C14.084 9.03606 14.28 9.01206 14.472 8.96406C14.672 8.91606 14.848 8.83606 15 8.72406C15.152 8.61206 15.276 8.47206 15.372 8.30406C15.468 8.12806 15.516 7.91206 15.516 7.65606C15.516 7.43206 15.472 7.23606 15.384 7.06806C15.304 6.90006 15.188 6.76406 15.036 6.66006C14.892 6.55606 14.72 6.48006 14.52 6.43206C14.32 6.37606 14.1 6.34806 13.86 6.34806H12.96V5.53206H13.656C14.12 5.53206 14.504 5.42006 14.808 5.19606C15.12 4.97206 15.276 4.62806 15.276 4.16406C15.276 3.99606 15.24 3.84006 15.168 3.69606C15.104 3.54406 15.012 3.41606 14.892 3.31206C14.78 3.20006 14.644 3.11206 14.484 3.04806C14.332 2.98406 14.164 2.95206 13.98 2.95206C13.724 2.95206 13.484 2.98406 13.26 3.04806C13.036 3.11206 12.772 3.23206 12.468 3.40806L12.132 2.67606Z" fill="#282C39"/>
<g clip-path="url(#clip0_2_2556)">
<path d="M22.2451 8.4375C22.1339 8.4375 22.0251 8.40451 21.9326 8.3427C21.8401 8.28089 21.768 8.19304 21.7254 8.09026C21.6829 7.98748 21.6717 7.87438 21.6934 7.76526C21.7151 7.65615 21.7687 7.55592 21.8474 7.47725C21.926 7.39859 22.0263 7.34501 22.1354 7.32331C22.2445 7.3016 22.3576 7.31274 22.4604 7.35532C22.5632 7.39789 22.651 7.46999 22.7128 7.56249C22.7746 7.65499 22.8076 7.76375 22.8076 7.875C22.8076 8.02418 22.7484 8.16726 22.6429 8.27275C22.5374 8.37824 22.3943 8.4375 22.2451 8.4375ZM22.4326 10.125C22.3214 10.125 22.2126 10.158 22.1201 10.2198C22.0276 10.2816 21.9555 10.3695 21.9129 10.4722C21.8704 10.575 21.8592 10.6881 21.8809 10.7972C21.9026 10.9064 21.9562 11.0066 22.0349 11.0852C22.1135 11.1639 22.2138 11.2175 22.3229 11.2392C22.432 11.2609 22.5451 11.2498 22.6479 11.2072C22.7507 11.1646 22.8385 11.0925 22.9003 11C22.9621 10.9075 22.9951 10.7988 22.9951 10.6875C22.9951 10.5383 22.9359 10.3952 22.8304 10.2898C22.7249 10.1843 22.5818 10.125 22.4326 10.125ZM20.9326 8.625C20.8214 8.625 20.7126 8.65799 20.6201 8.7198C20.5276 8.78161 20.4555 8.86946 20.4129 8.97224C20.3704 9.07502 20.3592 9.18812 20.3809 9.29724C20.4026 9.40635 20.4562 9.50658 20.5349 9.58525C20.6135 9.66391 20.7138 9.71749 20.8229 9.73919C20.932 9.7609 21.0451 9.74976 21.1479 9.70718C21.2507 9.66461 21.3385 9.59251 21.4003 9.50001C21.4621 9.40751 21.4951 9.29875 21.4951 9.1875C21.4951 9.03832 21.4359 8.89524 21.3304 8.78975C21.2249 8.68426 21.0818 8.625 20.9326 8.625ZM23.7451 8.8125C23.6339 8.8125 23.5251 8.84549 23.4326 8.9073C23.3401 8.96911 23.268 9.05696 23.2254 9.15974C23.1829 9.26252 23.1717 9.37562 23.1934 9.48474C23.2151 9.59385 23.2687 9.69408 23.3474 9.77275C23.426 9.85141 23.5263 9.90499 23.6354 9.92669C23.7445 9.9484 23.8576 9.93726 23.9604 9.89468C24.0632 9.85211 24.151 9.78001 24.2128 9.68751C24.2746 9.59501 24.3076 9.48625 24.3076 9.375C24.3076 9.22582 24.2484 9.08274 24.1429 8.97725C24.0374 8.87176 23.8943 8.8125 23.7451 8.8125ZM31.2451 1.5H29.8998C29.8013 1.49991 29.7038 1.51934 29.6129 1.55715C29.522 1.59497 29.4395 1.65042 29.3701 1.72031L28.067 3.02344L22.1514 4.0125C22.0149 4.03367 21.8871 4.09281 21.7827 4.18316C21.6782 4.27352 21.6013 4.39144 21.5607 4.52344C21.5194 4.65394 21.5147 4.79325 21.5469 4.92628C21.5791 5.05931 21.6471 5.18099 21.7436 5.27813L26.342 9.87656C26.4812 10.0162 26.6698 10.0953 26.867 10.0969C26.945 10.0963 27.0225 10.0836 27.0967 10.0594C27.2287 10.0188 27.3466 9.94187 27.437 9.83743C27.5273 9.73298 27.5864 9.60522 27.6076 9.46875L28.5967 3.55313L29.8998 2.25H31.2451C31.3446 2.25 31.44 2.21049 31.5103 2.14017C31.5806 2.06984 31.6201 1.97446 31.6201 1.875C31.6201 1.77554 31.5806 1.68016 31.5103 1.60984C31.44 1.53951 31.3446 1.5 31.2451 1.5Z" fill="#767676"/>
</g>
<path d="M33.4801 2.21997H34.2481V9.77997H33.2161V3.32397L31.8601 3.94797L31.6201 3.07197L33.4801 2.21997Z" fill="#282C39"/>
<defs>
<clipPath id="clip0_2_2556">
<rect width="12" height="12" fill="white" transform="translate(19.6201)"/>
</clipPath>
</defs>
</svg>
