<svg width="17" height="17" viewBox="0 0 17 17" fill="none" xmlns="http://www.w3.org/2000/svg">
<path d="M8.34979 4.36816C6.07658 4.36816 4.23578 6.23615 4.23578 8.53777C4.23578 10.8394 6.07658 12.7074 8.34979 12.7074C10.6271 12.7074 12.472 10.8394 12.472 8.53777C12.472 6.23615 10.6271 4.36816 8.34979 4.36816ZM8.3539 11.8734C6.53369 11.8734 5.0594 10.3807 5.0594 8.53777C5.0594 6.6948 6.53369 5.20208 8.3539 5.20208C10.1741 5.20208 11.6484 6.6948 11.6484 8.53777C11.6484 10.3807 10.1741 11.8734 8.3539 11.8734ZM8.2633 6.45296H8.2386C8.07387 6.45296 7.94209 6.58639 7.94209 6.75318V8.72123C7.94209 8.86716 8.01622 9.00476 8.14388 9.07981L9.8529 10.118C9.99292 10.2014 10.1741 10.1597 10.2565 10.018C10.2772 9.98421 10.2909 9.94658 10.2969 9.90732C10.3029 9.86807 10.3011 9.82798 10.2915 9.78947C10.2819 9.75095 10.2647 9.71478 10.241 9.68312C10.2173 9.65146 10.1876 9.62496 10.1535 9.60518L8.55981 8.64618V6.75318C8.55981 6.58639 8.42803 6.45296 8.2633 6.45296Z" fill="white"/>
<rect x="15.2358" y="8.17688" width="6" height="6" rx="3" transform="rotate(180 15.2358 8.17688)" fill="#0F96E3"/>
<path d="M12.458 5.3991V4.95466L13.6418 3.62132H12.458V3.17688H14.2358V3.62132L13.0522 4.95466H14.2358V5.3991H12.458ZM10.2358 7.17688V6.73244L11.4196 5.3991H10.2358V4.95466H12.0136V5.3991L10.83 6.73244H12.0136V7.17688H10.2358Z" fill="white"/>
</svg>
