<svg width="12" height="12" viewBox="0 0 12 12" fill="none" xmlns="http://www.w3.org/2000/svg">
<path d="M6.00001 2.43727C6.31067 2.43727 6.56251 2.18543 6.56251 1.87477C6.56251 1.56411 6.31067 1.31228 6.00001 1.31228C5.68936 1.31228 5.43752 1.56411 5.43752 1.87477C5.43752 2.18543 5.68936 2.43727 6.00001 2.43727Z" stroke="#949AAB" stroke-width="1.12173" stroke-linecap="round" stroke-linejoin="round"/>
<path d="M6.00001 6.56251C6.31067 6.56251 6.56251 6.31067 6.56251 6.00001C6.56251 5.68936 6.31067 5.43752 6.00001 5.43752C5.68936 5.43752 5.43752 5.68936 5.43752 6.00001C5.43752 6.31067 5.68936 6.56251 6.00001 6.56251Z" stroke="#949AAB" stroke-width="1.12173" stroke-linecap="round" stroke-linejoin="round"/>
<path d="M6.00001 10.6868C6.31067 10.6868 6.56251 10.4349 6.56251 10.1243C6.56251 9.81362 6.31067 9.56178 6.00001 9.56178C5.68936 9.56178 5.43752 9.81362 5.43752 10.1243C5.43752 10.4349 5.68936 10.6868 6.00001 10.6868Z" stroke="#949AAB" stroke-width="1.12173" stroke-linecap="round" stroke-linejoin="round"/>
</svg>
