<svg width="18" height="18" viewBox="0 0 18 18" fill="none" xmlns="http://www.w3.org/2000/svg">
<path d="M10.5004 1.49988H4.50037C4.10255 1.49988 3.72102 1.65791 3.43971 1.93922C3.15841 2.22052 3.00037 2.60205 3.00037 2.99988V14.9999C3.00037 15.3977 3.15841 15.7792 3.43971 16.0605C3.72102 16.3418 4.10255 16.4999 4.50037 16.4999H13.5004C13.8982 16.4999 14.2797 16.3418 14.561 16.0605C14.8423 15.7792 15.0004 15.3977 15.0004 14.9999V5.99988M10.5004 1.49988L15.0004 5.99988M10.5004 1.49988L10.5004 5.99988H15.0004M12.0004 9.74988H6.00037M12.0004 12.7499H6.00037M7.50037 6.74988H6.00037" stroke="#1A1A1A" stroke-width="0.886157" stroke-linecap="round" stroke-linejoin="round"/>
</svg>
