<svg width="24" height="24" viewBox="0 0 24 24" fill="none" xmlns="http://www.w3.org/2000/svg">
<rect x="0.37391" y="0.37391" width="23.2522" height="23.2522" rx="11.5912" fill="white"/>
<path d="M12.375 9.95477C11.2449 9.95477 10.3296 10.8701 10.3296 12.0002C10.3296 13.1303 11.2449 14.0457 12.375 14.0457C13.5051 14.0457 14.4205 13.1303 14.4205 12.0002C14.4205 10.8701 13.5051 9.95477 12.375 9.95477ZM16.9466 11.4889C16.8308 10.4519 16.3658 9.4851 15.628 8.74728C14.8902 8.00946 13.9234 7.54446 12.8864 7.42863V6.37522H11.8637V7.42863C10.8267 7.54446 9.85991 8.00946 9.12209 8.74728C8.38427 9.4851 7.91927 10.4519 7.80344 11.4889H6.75003V12.5116H7.80344C7.91927 13.5486 8.38427 14.5153 9.12209 15.2532C9.85991 15.991 10.8267 16.456 11.8637 16.5718V17.6252H12.8864V16.5718C13.9234 16.456 14.8902 15.991 15.628 15.2532C16.3658 14.5153 16.8308 13.5486 16.9466 12.5116H18V11.4889H16.9466ZM12.375 15.5798C10.3961 15.5798 8.79548 13.9792 8.79548 12.0002C8.79548 10.0212 10.3961 8.42068 12.375 8.42068C14.354 8.42068 15.9546 10.0212 15.9546 12.0002C15.9546 13.9792 14.354 15.5798 12.375 15.5798Z" fill="#0F96E3"/>
<rect x="0.37391" y="0.37391" width="23.2522" height="23.2522" rx="11.5912" stroke="#E8EBF3" stroke-width="0.74782"/>
</svg>
