<svg width="32" height="85" viewBox="0 0 32 85" fill="none" xmlns="http://www.w3.org/2000/svg">
<rect x="0.5" y="0.5" width="31" height="31" rx="15.5" fill="white"/>
<path d="M16.2224 14.9569C16.6076 14.9569 16.9372 14.8198 17.2113 14.5457C17.4853 14.2717 17.6224 13.942 17.6224 13.5569C17.6224 13.1717 17.4853 12.842 17.2113 12.568C16.9372 12.2939 16.6076 12.1569 16.2224 12.1569C15.8372 12.1569 15.5076 12.2939 15.2335 12.568C14.9594 12.842 14.8224 13.1717 14.8224 13.5569C14.8224 13.942 14.9594 14.2717 15.2335 14.5457C15.5076 14.8198 15.8372 14.9569 16.2224 14.9569ZM16.2224 22.7124C18.1631 20.9791 19.6298 19.3309 20.6224 17.768C21.615 16.205 22.1113 14.8606 22.1113 13.7346C22.1113 11.9569 21.5446 10.5013 20.4113 9.36797C19.2779 8.23464 17.8816 7.66797 16.2224 7.66797C14.5631 7.66797 13.1668 8.23464 12.0335 9.36797C10.9002 10.5013 10.3335 11.9569 10.3335 13.7346C10.3335 14.8606 10.8372 16.205 11.8446 17.768C12.852 19.3309 14.3113 20.9791 16.2224 22.7124ZM16.2224 24.0457C13.9113 22.0309 12.1853 20.1643 11.0446 18.4457C9.90387 16.7272 9.3335 15.1569 9.3335 13.7346C9.3335 11.5865 10.0261 9.87167 11.4113 8.59019C12.7965 7.30871 14.4002 6.66797 16.2224 6.66797C18.0446 6.66797 19.6483 7.30871 21.0335 8.59019C22.4187 9.87167 23.1113 11.5865 23.1113 13.7346C23.1113 15.1569 22.5409 16.7272 21.4002 18.4457C20.2594 20.1643 18.5335 22.0309 16.2224 24.0457Z" fill="#198460"/>
<rect x="0.5" y="0.5" width="31" height="31" rx="15.5" stroke="#E8EBF3"/>
<path d="M16 39L16 46" stroke="#D7D8D8" stroke-linecap="round" stroke-dasharray="4 4"/>
<rect x="0.5" y="53.5" width="31" height="31" rx="15.5" fill="white"/>
<path d="M16.0002 68.6209C16.3854 68.6209 16.715 68.4839 16.9891 68.2098C17.2632 67.9357 17.4002 67.6061 17.4002 67.2209C17.4002 66.8357 17.2632 66.5061 16.9891 66.232C16.715 65.958 16.3854 65.8209 16.0002 65.8209C15.615 65.8209 15.2854 65.958 15.0113 66.232C14.7373 66.5061 14.6002 66.8357 14.6002 67.2209C14.6002 67.6061 14.7373 67.9357 15.0113 68.2098C15.2854 68.4839 15.615 68.6209 16.0002 68.6209ZM16.0002 76.3765C17.941 74.6431 19.4076 72.995 20.4002 71.432C21.3928 69.8691 21.8891 68.5246 21.8891 67.3987C21.8891 65.6209 21.3224 64.1654 20.1891 63.032C19.0558 61.8987 17.6595 61.332 16.0002 61.332C14.341 61.332 12.9447 61.8987 11.8113 63.032C10.678 64.1654 10.1113 65.6209 10.1113 67.3987C10.1113 68.5246 10.615 69.8691 11.6224 71.432C12.6298 72.995 14.0891 74.6431 16.0002 76.3765ZM16.0002 77.7098C13.6891 75.695 11.9632 73.8283 10.8224 72.1098C9.6817 70.3913 9.11133 68.8209 9.11133 67.3987C9.11133 65.2506 9.80392 63.5357 11.1891 62.2543C12.5743 60.9728 14.178 60.332 16.0002 60.332C17.8224 60.332 19.4261 60.9728 20.8113 62.2543C22.1965 63.5357 22.8891 65.2506 22.8891 67.3987C22.8891 68.8209 22.3187 70.3913 21.178 72.1098C20.0373 73.8283 18.3113 75.695 16.0002 77.7098Z" fill="#EE3F32"/>
<rect x="0.5" y="53.5" width="31" height="31" rx="15.5" stroke="#E8EBF3"/>
</svg>
